<svg xmlns="http://www.w3.org/2000/svg" xmlns:xlink="http://www.w3.org/1999/xlink" version="1.1" x="0px" y="0px" viewBox="0 0 52 65" style="enable-background:new 0 0 52 52;" xml:space="preserve"><style type="text/css">
	.st0{fill:none;stroke:#000000;stroke-width:2;stroke-linecap:round;stroke-linejoin:round;stroke-miterlimit:10;}
</style><g><g><path d="M39,34.9748535H13c-0.5527344,0-1-0.4477539-1-1v-11c0-7.7197266,6.2802734-14,14-14s14,6.2802734,14,14v11    C40,34.5270996,39.5527344,34.9748535,39,34.9748535z M14,32.9748535h24v-10c0-6.6166992-5.3828125-12-12-12s-12,5.3833008-12,12    V32.9748535z"/></g><g><path d="M42,41.9748535H10c-0.3310547,0-0.6416016-0.1640625-0.8271484-0.4384766    c-0.1865234-0.2744141-0.2246094-0.6230469-0.1025391-0.9311523l2.7832031-7    c0.1513672-0.3803711,0.5205078-0.6303711,0.9296875-0.6303711h26.4345703c0.4101563,0,0.7783203,0.25,0.9296875,0.6308594    l2.7822266,7c0.1220703,0.3076172,0.0839844,0.65625-0.1025391,0.9306641    C42.6416016,41.810791,42.3310547,41.9748535,42,41.9748535z M11.4736328,39.9748535h29.0527344l-1.9873047-5H13.4619141    L11.4736328,39.9748535z"/></g><g><path d="M49,50.0251465H3c-0.5527344,0-1-0.4477539-1-1v-3.1196289c0-3.2700195,2.6601563-5.9306641,5.9306641-5.9306641    h36.1386719C47.3398438,39.9748535,50,42.635498,50,45.9055176v3.1196289C50,49.5773926,49.5527344,50.0251465,49,50.0251465z     M4,48.0251465h44v-2.1196289c0-2.1674805-1.7636719-3.9306641-3.9306641-3.9306641H7.9306641    C5.7636719,41.9748535,4,43.7380371,4,45.9055176V48.0251465z"/></g><g><path d="M7,24.9748535H5c-0.5527344,0-1-0.4477539-1-1s0.4472656-1,1-1h2c0.5527344,0,1,0.4477539,1,1    S7.5527344,24.9748535,7,24.9748535z"/></g><g><path d="M12.5654297,11.5397949c-0.2558594,0-0.5117188-0.0976563-0.7070313-0.2929688l-1.4140625-1.4140625    c-0.390625-0.390625-0.390625-1.0234375,0-1.4140625s1.0234375-0.390625,1.4140625,0l1.4140625,1.4140625    c0.390625,0.390625,0.390625,1.0234375,0,1.4140625C13.0771484,11.4421387,12.8212891,11.5397949,12.5654297,11.5397949z"/></g><g><path d="M26,5.9748535c-0.5527344,0-1-0.4477539-1-1v-2c0-0.5522461,0.4472656-1,1-1s1,0.4477539,1,1v2    C27,5.5270996,26.5527344,5.9748535,26,5.9748535z"/></g><g><path d="M39.4355469,11.5397949c-0.2558594,0-0.5117188-0.0976563-0.7070313-0.2929688    c-0.390625-0.390625-0.390625-1.0234375,0-1.4140625l1.4140625-1.4140625c0.390625-0.390625,1.0234375-0.390625,1.4140625,0    s0.390625,1.0234375,0,1.4140625l-1.4140625,1.4140625C39.9472656,11.4421387,39.6914063,11.5397949,39.4355469,11.5397949z"/></g><g><path d="M47,24.9753418h-2c-0.5527344,0-1-0.4477539-1-1s0.4472656-1,1-1h2c0.5527344,0,1,0.4477539,1,1    S47.5527344,24.9753418,47,24.9753418z"/></g></g><text x="0" y="67" fill="#000000" font-size="5px" font-weight="bold" font-family="'Helvetica Neue', Helvetica, Arial-Unicode, Arial, Sans-serif">Created by Dinosoft Labs</text><text x="0" y="72" fill="#000000" font-size="5px" font-weight="bold" font-family="'Helvetica Neue', Helvetica, Arial-Unicode, Arial, Sans-serif">from the Noun Project</text></svg>